<?xml version="1.0" encoding="utf-8"?>
<!-- Generator: Adobe Illustrator 19.2.1, SVG Export Plug-In . SVG Version: 6.00 Build 0)  -->
<svg version="1.1" id="Nine" xmlns="http://www.w3.org/2000/svg" xmlns:xlink="http://www.w3.org/1999/xlink" x="0px" y="0px"
	 width="2048px" height="2048px" viewBox="0 0 2048 2048" enable-background="new 0 0 2048 2048" xml:space="preserve">
<title>Tiffany Rail Numerals Uni</title>
<path fill="#231F20" d="M610.2,601.2h-0.4c0,7.6,0,17,0,28.5c0,139.5,140.6,279.8,281.3,279.8h250.7c23.1,3.8,44.9-11.8,48.7-34.9
	s-11.8-44.9-34.9-48.7c-2.3-0.4-4.6-0.6-6.9-0.6v-0.5c0,0-138.9,0.1-250.6,0.1S695,712.7,695,624.3V574
	C670.3,591.7,640.6,601.3,610.2,601.2z"/>
<path fill="#231F20" d="M1148.9,1023L1148.9,1023c23.4,0,42.4-19,42.4-42.4s-19-42.4-42.4-42.4H883.2
	C767.5,938.3,581.8,818,581.8,614v-15.5c-32.1-6.4-61.2-23.4-82.5-48.3c-1.2,32.6-2.4,65.9-2.4,85.9c0,165.7,170.9,387,386.9,387
	L1148.9,1023L1148.9,1023z"/>
<path fill="#231F20" d="M666,320.5c36.2-39.1,114.8-109.1,212.5-109.1h156.2c130.1,0,305.3,136.2,305.3,318.2V562
	c31.8,2.9,61.8,16.2,85.3,37.9v-68c0-170.3-153.4-406.5-407.7-406.5l-120.7-0.1c-148.3,0-273.6,92.7-341.3,194.9
	C590.9,305.8,630.6,305.9,666,320.5z"/>
<path fill="#231F20" d="M1310.6,562.2v-50.9c0-91.4-101.3-272.5-297.9-272.5c0,0-93.3,0.3-128.8,0.3c-82.8,0-156.8,61.2-191.8,95.6
	c24.6,16.8,43.6,40.7,54.2,68.6c25.5-31,71.1-75.8,122.5-75.8h169.4c64.3,0,187.9,87.8,187.9,196.1v77.7
	C1249.4,579.4,1279,565.7,1310.6,562.2z"/>
<path fill="#231F20" d="M610.2,571.3c64.1,0,116-51.9,116-116s-51.9-116-116-116s-116,51.9-116,116S546.1,571.3,610.2,571.3
	L610.2,571.3z"/>
<path fill="#231F20" d="M1339.6,1072c0,87.4-55.5,165.8-76,186.3s-458.1,459.8-458.1,459.8l0.1,0.1c-0.7,0.6-1.3,1.1-1.9,1.8
	c-16.5,16.5-16.5,43.4,0,59.9c16.5,16.5,43.4,16.5,59.9,0c0.4-0.4,0.8-0.8,1.2-1.3l0.4,0.4l445.8-445.8
	c88.6-88.6,113.9-202.5,113.9-259.6V815.1c-23.5,21.4-53.3,34.6-84.9,37.4C1339.8,904.7,1339.6,1008.5,1339.6,1072z"/>
<path fill="#231F20" d="M1221.8,1262c61.7-61.7,88.8-147.1,88.8-183V852.3c-31.5-3.4-61-17.1-84.1-38.8c0,72.1,0,200.2,0,244.7
	c0,63.2-33.5,110.9-50.3,127.7s-454.2,455.3-454.2,455.3c-16.2,16.9-15.6,43.7,1.3,59.9c16.4,15.7,42.2,15.7,58.6,0
	c0.4-0.4,0.8-0.8,1.1-1.2l0.4,0.4L1221.8,1262z"/>
<path fill="#231F20" d="M1326.6,591.3c-64.1,0-116,51.9-116,116s51.9,116,116,116s116-51.9,116-116S1390.6,591.3,1326.6,591.3
	L1326.6,591.3z"/>
</svg>
