<?xml version="1.0" encoding="utf-8"?>
<!-- Generator: Adobe Illustrator 19.2.1, SVG Export Plug-In . SVG Version: 6.00 Build 0)  -->
<svg version="1.1" id="Three" xmlns="http://www.w3.org/2000/svg" xmlns:xlink="http://www.w3.org/1999/xlink" x="0px" y="0px"
	 width="2048px" height="2048px" viewBox="0 0 2048 2048" enable-background="new 0 0 2048 2048" xml:space="preserve">
<title>Tiffany Rail Numerals Uni</title>
<path fill="#231F20" d="M996.3,1585.9L996.3,1585.9z"/>
<path fill="#231F20" d="M694.5,1407.8c0,91,100.8,271.2,296.5,271.2h130.3c78.1,0,141.1-28.8,188.6-69.1l0.9-0.9
	c-23-19.4-39.3-45.4-46.9-74.4c-40.1,35.5-91.5,56.1-117.1,56.1H965.5c-64,0-187-87.4-187-195.2c0-82.1,0-109.2,0-109.2v-32.5
	c0-24.2-18.6-39.7-41.5-39.7s-42.3,19.6-42.3,43.8L694.5,1407.8L694.5,1407.8z"/>
<path fill="#231F20" d="M1333.6,1624.8l-1.1,1.1c-57.9,50.4-128.5,80.3-189.3,80.3h-174c-129.5,0-303.8-135.6-303.8-316.7
	c0,0,3.3-43.5,3.3-131.6h-0.6c0-24.2-19.6-43.8-43.8-43.8c-24.2,0-43.8,19.6-43.8,43.8c0,96.3,0,50.7,0,129.4
	c0,169.5,152.7,404.6,405.8,404.6h139.9c132.2,0,236.9-64.1,306.9-149.5l1.6-2.3C1400.1,1647.5,1364.3,1642,1333.6,1624.8z"/>
<path fill="#231F20" d="M1404.5,1382.7c-63.7,0-115.4,51.7-115.4,115.5s51.7,115.4,115.5,115.4c63.7,0,115.4-51.7,115.4-115.4
	C1520,1434.4,1468.3,1382.7,1404.5,1382.7C1404.6,1382.7,1404.6,1382.7,1404.5,1382.7z"/>
<path fill="#231F20" d="M1295.6,427.7c0,63.7,51.7,115.4,115.4,115.4c63.7,0,115.4-51.7,115.4-115.4s-51.7-115.4-115.4-115.4
	c0,0,0,0,0,0C1347.3,312.3,1295.6,363.9,1295.6,427.7z"/>
<path fill="#231F20" d="M580.6,644.2c0,24.2,19,43.8,42.4,43.8s42.4-19.6,42.4-43.8h-0.1v-91c0-200.7,174.3-336.6,303.8-336.6h174.1
	c62.8,0,136.2,31.9,195,85.4c30.3-17.6,65.9-23.6,100.2-16.9c-70.7-87.7-177.8-154.2-312.4-154.2H986.2
	c-253.2,0-405.8,235.2-405.8,404.6v108.7L580.6,644.2L580.6,644.2z"/>
<path fill="#231F20" d="M1447.2,894.7c43.2-43.2,87.7-174.9,87.7-231.9s0-127.2,0-127.2c0-9.7-0.5-19.6-1.5-29.7
	c-19.8,31-50.6,53.3-86.2,62.5c0,14.6,0,49.4,0,78.8c0,98.4-60.7,189.9-79.3,208.5s-62.5,52.4-62.5,105.3
	c0,118.4,141.8,118.4,141.8,329.3v69c34,10.5,63.1,33,81.6,63.5c3.4-27.4,6.3-65.1,6.3-114.3c0-227.4-141.3-325.2-141.3-342.1
	C1393.6,954,1447.2,894.7,1447.2,894.7z"/>
<path fill="#231F20" d="M1404.5,1352.9c4.5,0,8.9,0.2,13.2,0.6c0-19,0-40.4,0-60.9c0-198.8-141.6-213.4-141.6-323
	c0-60.8,53.9-118,74-138.1s67.6-96,67.6-182.7v-76.1c-2.2,0.1-4.5,0.2-6.8,0.2c-27.3,0-54-7.7-77.2-22.2v97.4
	c0,76.7-39.2,117-67.2,145.1s-77.4,86.4-77.4,154.4c0,109.3,38.2,153,73.8,188.5s67.3,97.4,67.3,131.7v105.5
	C1352.7,1359.9,1378.4,1352.9,1404.5,1352.9z"/>
<path fill="#231F20" d="M1269.7,394.3c7-29.6,23.1-56.3,46.1-76.3c-48.1-43-113.1-74.2-194.5-74.2H991
	c-195.6,0-296.5,188.1-296.5,295.5v104.9c0,24.2,18.1,43.8,41.5,43.8s42.4-19.6,42.4-43.8V527.3c0-107.8,123-195.1,187-195.1h181.4
	C1180.4,332.2,1230,356.1,1269.7,394.3z"/>
</svg>
