<?xml version="1.0" encoding="utf-8"?>
<!-- Generator: Adobe Illustrator 19.2.1, SVG Export Plug-In . SVG Version: 6.00 Build 0)  -->
<svg version="1.1" id="Six" xmlns="http://www.w3.org/2000/svg" xmlns:xlink="http://www.w3.org/1999/xlink" x="0px" y="0px"
	 width="2048px" height="2048px" viewBox="0 0 2048 2048" enable-background="new 0 0 2048 2048" xml:space="preserve">
<title>Tiffany Rail Numerals Uni</title>
<path fill="#231F20" d="M1328.9,1316.6h0.4c0-7.6,0-17,0-28.5c0-139.5-140.6-279.8-281.3-279.8H797.1c-23.1-3.8-44.9,11.8-48.7,34.9
	c-3.8,23.1,11.8,44.9,34.9,48.7c2.3,0.4,4.6,0.6,6.9,0.6v0.6c0,0,138.9-0.1,250.6-0.1s203.3,112.1,203.3,200.6v50.3
	C1268.7,1326,1298.4,1316.5,1328.9,1316.6z"/>
<path fill="#231F20" d="M790.2,894.8L790.2,894.8c-23.4,0-42.4,19-42.4,42.4s19,42.4,42.4,42.4h265.7
	c115.7,0,301.4,120.3,301.4,324.3v15.5c32.1,6.4,61.2,23.4,82.5,48.3c1.2-32.6,2.4-65.9,2.4-85.9c0-165.7-170.9-387-386.9-387
	L790.2,894.8L790.2,894.8z"/>
<path fill="#231F20" d="M1273,1597.3c-36.2,39.1-114.8,109.1-212.5,109.1H904.3c-130.1,0-305.3-136.2-305.3-318.2v-32.3
	c-31.8-2.9-61.8-16.2-85.3-37.8v68c0,170.3,153.4,406.6,407.7,406.6l120.7,0.1c148.3,0,273.6-92.7,341.3-194.8
	C1348,1612.1,1308.4,1611.9,1273,1597.3z"/>
<path fill="#231F20" d="M628.4,1355.6v50.9c0,91.4,101.3,272.5,297.9,272.5c0,0,93.3-0.3,128.8-0.3c82.8,0,156.8-61.2,191.8-95.6
	c-24.6-16.8-43.6-40.7-54.2-68.6c-25.4,31-71.1,75.8-122.5,75.8H900.6c-64.3,0-187.9-87.8-187.9-196.1v-77.7
	C689.6,1338.4,660,1352.1,628.4,1355.6z"/>
<path fill="#231F20" d="M1328.9,1346.5c-64.1,0-116,51.9-116,116s51.9,116,116,116s116-51.9,116-116l0,0
	C1444.9,1398.4,1392.9,1346.5,1328.9,1346.5z"/>
<path fill="#231F20" d="M599.5,845.8c0-87.5,55.5-165.8,76-186.3s456.4-458.2,456.4-458.2l-0.1-0.1c0.7-0.6,1.3-1.1,1.9-1.8
	c16.5-16.5,16.5-43.4,0-59.9c-16.5-16.5-43.4-16.5-59.9,0l0,0c-0.4,0.4-0.8,0.9-1.2,1.3l-0.4-0.4L628.1,584.5
	C539.5,673.1,514.2,787,514.2,844.1v258.6c23.5-21.4,53.3-34.6,84.9-37.4C599.2,1013.1,599.5,909.3,599.5,845.8z"/>
<path fill="#231F20" d="M717.2,655.8c-61.7,61.7-88.8,147.1-88.8,183v226.8c31.5,3.4,61,17.1,84.1,38.8c0-72.1,0-200.2,0-244.7
	c0-63.2,33.5-110.9,50.3-127.7s452.5-453.6,452.5-453.6c16.5-16.5,16.5-43.4,0-59.9c-16.5-16.5-43.4-16.5-59.9,0l0,0
	c-0.4,0.4-0.8,0.8-1.1,1.2l-0.4-0.4L717.2,655.8z"/>
<path fill="#231F20" d="M612.5,1326.5c64.1,0,116-51.9,116-116s-51.9-116-116-116s-116,51.9-116,116l0,0
	C496.5,1274.6,548.4,1326.5,612.5,1326.5z"/>
</svg>
