<?xml version="1.0" encoding="utf-8"?>
<!-- Generator: Adobe Illustrator 19.2.1, SVG Export Plug-In . SVG Version: 6.00 Build 0)  -->
<svg version="1.1" id="Seven" xmlns="http://www.w3.org/2000/svg" xmlns:xlink="http://www.w3.org/1999/xlink" x="0px" y="0px"
	 width="2048px" height="2048px" viewBox="0 0 2048 2048" enable-background="new 0 0 2048 2048" xml:space="preserve">
<title>Tiffany Rail Numerals Uni</title>
<path fill="#231F20" d="M1333.7,956.1c0,60.7-30.2,107.6-55.9,136.5c31.5,1.1,61.8,12.5,86.3,32.3c21.5-29.9,55.7-86.8,55.7-145.3
	c0-70.2,0.6-324.5,0.8-412.1c-32.4-2.4-63-15.5-87-37.3L1333.7,956.1L1333.7,956.1z"/>
<path fill="#231F20" d="M1448.5,981.6c0,61.1-40.6,128.6-64.4,163c22,26.1,34.1,59.1,34.2,93.2c44.8-49.8,118.2-147.8,118.2-256.7
	V523.4c-23.4,24.3-54.5,39.7-88,43.5L1448.5,981.6L1448.5,981.6z"/>
<path fill="#231F20" d="M1547.6,422.1c0-64.1-51.9-116-116-116c-64.1,0-116,51.9-116,116s51.9,116,116,116l0,0
	C1495.6,538.1,1547.6,486.1,1547.6,422.1z"/>
<path fill="#231F20" d="M1126.5,1238.4c0-0.2,0-0.4,0-0.6l-419.1,400.7c-17.4,16.6-18,44.2-1.4,61.6c16.6,17.4,44.2,18,61.6,1.4l0,0
	l390.1-373C1137.4,1302.8,1126.4,1271.1,1126.5,1238.4z"/>
<path fill="#231F20" d="M787.3,1722.2l0.2,0.2c-16.5,17.5-15.6,45,1.9,61.5c16.9,15.9,43.4,15.7,60.1-0.5l417.6-399.2
	c-33-1.2-64.6-13.5-89.6-35L787.3,1722.2z"/>
<path fill="#231F20" d="M1272.4,1122.4c-64.1,0-116,51.9-116,116s51.9,116,116,116s116-51.9,116-116l0,0
	C1388.4,1174.4,1336.5,1122.4,1272.4,1122.4z"/>
<path fill="#231F20" d="M747.4,511.6c24,0,43.5-19.5,43.5-43.5v0c0-0.3,0-0.6,0-0.9V345.3c0-8.3,8.6-15.6,20.7-15.6h492.9
	c4.2-0.1,8.4,0.8,12.2,2.5c20-25.6,47.9-43.7,79.4-51.6c-14.2-17.4-37.8-36.7-72.7-36.7H805.6c-76,0-101.7,69.7-101.7,101.2v123.1
	C703.9,492.1,723.3,511.6,747.4,511.6z"/>
<path fill="#231F20" d="M794,216.6h517.6c66.6,0,101,33.5,117.7,59.6c0.8,0,1.6-0.1,2.4-0.1c37.3,0,73.2,14.3,100.3,40
	c-20.6-120.4-107.1-187.5-205.4-187.5H805c-154.2,0-217,143.7-217,199.1v140.3l0,0c0.4,24,20.1,43.2,44.2,42.9
	c23.5-0.4,42.5-19.3,42.9-42.9l0,0V344.4C675.1,283.4,728.8,216.6,794,216.6z"/>
</svg>
