<?xml version="1.0" encoding="utf-8"?>
<!-- Generator: Adobe Illustrator 19.2.1, SVG Export Plug-In . SVG Version: 6.00 Build 0)  -->
<svg version="1.1" id="Two" xmlns="http://www.w3.org/2000/svg" xmlns:xlink="http://www.w3.org/1999/xlink" x="0px" y="0px"
	 width="2048px" height="2048px" viewBox="0 0 2048 2048" enable-background="new 0 0 2048 2048" xml:space="preserve">
<title>Tiffany Rail Numerals Uni</title>
<path fill="#231F20" d="M1468.9,298c-76.1-119-206.6-162.3-341.7-168.1H638.8c-24.3,0-44.1,19.7-44.1,44c0,24.3,19.7,44.1,44,44.1
	h486.5c78.6,3.5,169,18.2,227.1,76.4c45.4,46,73.9,100.6,74.3,166.9c0.4,42.3-11.8,82.5-32.6,119.3c-1.4,2.5-3.2,5.3-5.2,8.4
	c25.1,25.8,39.7,60,41,96c15.1-19.3,28.8-39.7,41-61c32.6-57.6,47.5-120.3,43-185.6C1510.3,389.9,1495.5,339.1,1468.9,298z"/>
<path fill="#231F20" d="M1331.7,315.3c-51.2-52.7-139.2-65.1-208.6-68l-484.3-0.7h-0.1c-24.3,0-44.1,19.7-44.1,44
	c0,24.3,19.7,44.1,44,44.1l481.6,0.6c45.4,1.9,113.8,5.9,148.2,41.4c37,32.2,50.6,81.9,32.5,127.4c-5.3,12.5-13.1,26-23.3,40.5
	c2-0.1,4.1-0.2,6.1-0.2c29.4,0,58.1,8.8,82.4,25.5c5.9-10,11.2-20.4,15.8-31.1C1416.6,459.5,1390.5,374.6,1331.7,315.3z"/>
<path fill="#231F20" d="M1399.9,690.5c0-64.1-51.9-116-116-116s-116,51.9-116,116s51.9,116,116,116l0,0
	C1347.9,806.5,1399.9,754.6,1399.9,690.5z"/>
<path fill="#231F20" d="M659.5,1230.5c0,64.1,51.9,116,116,116s116-51.9,116-116s-51.9-116-116-116l0,0
	C711.5,1114.5,659.5,1166.4,659.5,1230.5z"/>
<path fill="#231F20" d="M851.2,1105.7l321.2-321.2c-21.4-25.3-33.5-57.2-34.3-90.4L940.9,891.3c0,0-123.9,123.1-171.5,171.6
	c-8,8.1-15.4,16.3-22.4,24.5C782.8,1080.3,820,1086.8,851.2,1105.7z"/>
<path fill="#231F20" d="M1490,1703.1l-599.1-0.1c-43-0.5-86.8-17.1-120.2-45.6l-0.3-0.2c-35.2-29.5-58.9-72.8-65.1-118.6
	c-0.9-45.3-5.3-92.2,0.1-137.3c1.5-13,3.7-26.1,6.5-39.2c-31.4-15.2-56.4-41.2-70.3-73.2c-10.4,33.3-20,70.6-23.7,102
	c-6.1,50.2-8.6,110,0.2,160.6c9.3,67,44.1,130.1,95.5,173.3c48.9,41.7,113.2,65.9,176.5,66.6l599.8,0.2c24.4,0,44.1-19.7,44.1-44.1
	C1534.1,1722.9,1514.4,1703.1,1490,1703.1z"/>
<path fill="#231F20" d="M1286.7,836.3c-0.9,0-1.8,0.1-2.8,0.1c-32.9,0-64.7-11.1-90.5-31.5l-251.6,251.6l-67.1,67.1
	c23,21.4,38.5,49.6,44.2,80.5L1286.7,836.3z"/>
<path fill="#231F20" d="M1490,1585.7l-597.2-0.1c-36-0.6-66.5-28.7-71.1-63.1c-2.3-49.9-3.4-86.1,1-122.6
	c1.4-11.4,3.6-22.6,6.6-33.7c-28.5,11.3-59.7,13.4-89.4,5.9c-2.2,10.8-4,21.4-5.2,31.8c-1.4,11.5-1.2,126.1-0.1,131.9
	c11,76.4,80,137,157.3,138l598.1,0.1c24.3,0,44.1-19.7,44.1-44.1C1534.1,1605.4,1514.3,1585.7,1490,1585.7z"/>
</svg>
