<?xml version="1.0" encoding="utf-8"?>
<!-- Generator: Adobe Illustrator 19.2.1, SVG Export Plug-In . SVG Version: 6.00 Build 0)  -->
<svg version="1.1" id="One" xmlns="http://www.w3.org/2000/svg" xmlns:xlink="http://www.w3.org/1999/xlink" x="0px" y="0px"
	 width="2048px" height="2048px" viewBox="0 0 2048 2048" enable-background="new 0 0 2048 2048" xml:space="preserve">
<title>Tiffany Rail Numerals Uni</title>
<path fill="#231F20" d="M958.5,253.3c30.5-30.5,62.3-36.1,117-36.1s71.6,7.1,88.1,23.6s29.4,27.7,29.4,90.6v226
	c33.2,3.2,64.3,17.6,88.1,41V330.6c0-53-6.6-103.4-45.4-142.2s-64.2-59.2-168.3-59.2s-146.7,41.3-146.7,41.3l-158.8,155l0,0
	l-0.1,0.1c-17.2,17.2-17.2,45.1,0,62.2s45.1,17.2,62.2,0l0.1-0.1l0,0L958.5,253.3z"/>
<path fill="#231F20" d="M1193,1106.9c33.2,3.2,64.3,17.6,88.1,41v-341c-23.8,23.4-54.9,37.8-88.1,41V1106.9L1193,1106.9z"/>
<path fill="#231F20" d="M1193,1749.6L1193,1749.6c1.4,24.3,22.1,42.9,46.3,41.6c22.5-1.2,40.5-19.1,41.6-41.6h0.1v-393.2
	c-23.8,23.4-54.9,37.8-88.1,41V1749.6L1193,1749.6z"/>
<path fill="#231F20" d="M1075.6,599.7c23.6-23.8,54.7-38.7,88.1-42.2V330.6c0-42.3-5.7-52.6-15.6-62.5
	c-13.9-13.9-16.4-21.5-72.5-21.5c-40.2,0-70.2,1.3-96.7,27.9s-134,134.2-134,134.2c-17.2,17.2-17.2,45.1,0,62.2s45.1,17.2,62.2,0
	l133-133c2.5-2.5,5.3-3.2,13.3-3.1c8.3,0,22.2,0,22.2,0L1075.6,599.7L1075.6,599.7z"/>
<path fill="#231F20" d="M1075.6,1149.2c23.6-23.8,54.7-38.7,88.1-42.2V847.7c-33.3-3.5-64.5-18.4-88.1-42.2V1149.2z"/>
<path fill="#231F20" d="M1075.6,1749.6L1075.6,1749.6c1.4,24.3,22.1,42.9,46.3,41.6c22.5-1.2,40.5-19.1,41.6-41.6h0.1v-352.3
	c-33.3-3.5-64.5-18.4-88.1-42.2V1749.6z"/>
<path fill="#231F20" d="M1179,1136.2c-64.1,0-116,51.9-116,116s51.9,116,116,116s116-51.9,116-116l0,0
	C1295,1188.1,1243.1,1136.2,1179,1136.2z"/>
<path fill="#231F20" d="M1179,586.2c-64.1,0-116,51.9-116,116s51.9,116,116,116s116-51.9,116-116S1243.1,586.2,1179,586.2
	L1179,586.2z"/>
</svg>
