<?xml version="1.0" encoding="utf-8"?>
<!-- Generator: Adobe Illustrator 19.2.1, SVG Export Plug-In . SVG Version: 6.00 Build 0)  -->
<svg version="1.1" id="Five" xmlns="http://www.w3.org/2000/svg" xmlns:xlink="http://www.w3.org/1999/xlink" x="0px" y="0px"
	 width="2048px" height="2048px" viewBox="0 0 2048 2048" enable-background="new 0 0 2048 2048" xml:space="preserve">
<title>Tiffany Rail Numerals Uni</title>
<path fill="#231F20" d="M1391.7,1298c-12.2-21.3-25.9-41.7-41-61c-1.3,36-15.9,70.2-41,96c2.1,3,3.8,5.9,5.2,8.4
	c20.8,36.8,33.1,77,32.6,119.3c-0.3,66.4-28.9,121-74.3,166.9c-58.1,58.1-148.5,72.9-227.1,76.4H559.8c-24.3,0-44.1,19.8-44,44.1
	c0,24.3,19.8,44.1,44.1,44h488.4c135.1-5.8,265.5-49.1,341.7-168.1c26.6-41.1,41.4-91.8,44.8-140.4
	C1439.2,1418.3,1424.3,1355.6,1391.7,1298z"/>
<path fill="#231F20" d="M559.8,1675.4L559.8,1675.4l484.3-0.7c69.4-2.8,157.4-15.3,208.6-68c58.7-59.3,84.9-144.2,50.4-223.6
	c-4.6-10.7-9.9-21.1-15.8-31.1c-24.2,16.6-53,25.5-82.4,25.5c-2.1,0-4.1-0.1-6.1-0.2c10.2,14.5,18,28.1,23.3,40.5
	c18.1,45.5,4.4,95.2-32.5,127.4c-34.4,35.5-102.8,39.5-148.2,41.4l-481.6,0.6c-24.3,0.4-43.8,20.4-43.4,44.8
	C516.8,1655.9,536,1675.1,559.8,1675.4z"/>
<path fill="#231F20" d="M1204.9,1347.5c64.1,0,116-51.9,116-116s-51.9-116-116-116s-116,51.9-116,116l0,0
	C1088.9,1295.6,1140.9,1347.5,1204.9,1347.5z"/>
<path fill="#231F20" d="M696.5,575.6c-64.1,0-116,51.9-116,116s51.9,116,116,116s116-51.9,116-116S760.6,575.6,696.5,575.6
	L696.5,575.6z"/>
<path fill="#231F20" d="M862,1030.8l197.1,197.1c0.8-33.2,12.9-65,34.3-90.4L772.2,816.3c-31.2,18.9-68.4,25.5-104.2,18.3
	c7,8.2,14.4,16.3,22.4,24.5C738,907.7,862,1030.8,862,1030.8z"/>
<path fill="#231F20" d="M562.7,633.4c14-32,38.9-58,70.3-73.2c-2.8-13.2-4.9-26.2-6.5-39.2c-5.5-45.1-1-92-0.1-137.3
	c6.2-45.9,29.9-89.1,65.1-118.6l0.3-0.2c33.4-28.5,77.2-45.1,120.2-45.6L1411,219c24.3,0,44.1-19.7,44.1-44.1s-19.7-44.1-44.1-44.1
	L811.2,131c-63.3,0.7-127.6,25-176.5,66.6c-51.5,43.2-86.2,106.4-95.5,173.3c-8.8,50.5-6.2,110.4-0.2,160.5
	C542.7,562.8,552.3,600.1,562.7,633.4z"/>
<path fill="#231F20" d="M862.8,865.5l251.6,251.6c25.7-20.4,57.6-31.5,90.5-31.5c0.9,0,1.8,0.1,2.8,0.1L840,718
	c-5.7,30.9-21.2,59.1-44.2,80.5L862.8,865.5z"/>
<path fill="#231F20" d="M1455.1,292.3c0-24.3-19.7-44.1-44.1-44.1l-598.1,0.1c-77.3,0.9-146.3,61.5-157.3,138
	c-1.1,5.8-1.3,120.4,0.1,131.9c1.3,10.4,3,21,5.2,31.8c29.7-7.4,61-5.4,89.4,5.9c-3-11.1-5.2-22.3-6.6-33.7
	c-4.5-36.5-3.3-72.7-1-122.6c4.6-34.4,35-62.6,71.1-63.1l597.2-0.1C1435.3,336.5,1455.1,316.7,1455.1,292.3
	C1455.1,292.4,1455.1,292.4,1455.1,292.3z"/>
</svg>
