<?xml version="1.0" encoding="utf-8"?>
<!-- Generator: Adobe Illustrator 19.2.1, SVG Export Plug-In . SVG Version: 6.00 Build 0)  -->
<svg version="1.1" id="Period" xmlns="http://www.w3.org/2000/svg" xmlns:xlink="http://www.w3.org/1999/xlink" x="0px" y="0px"
	 width="2048px" height="2048px" viewBox="0 0 2048 2048" enable-background="new 0 0 2048 2048" xml:space="preserve">
<title>Tiffany Rail Numerals Uni</title>
<path d="M1022.9,275.4c-422.2,0-765.2,342.3-765.2,765.1s343,765.3,765.2,765.3c422.5,0,765.1-342.5,765.1-765.3
	S1445.5,275.4,1022.9,275.4z M940.5,1503.3c0,0-171.3-491.9-180.8-518.3v518.2H567.4v-918h236.1l308.9,918.1H940.5z M1484.9,1503.3
	h-192.8V985c-7.5,20.3-112.2,322.8-146.9,425l-86.1-257l189.5-567.7h236.3L1484.9,1503.3L1484.9,1503.3z"/>
</svg>
