<?xml version="1.0" encoding="utf-8"?>
<!-- Generator: Adobe Illustrator 19.2.1, SVG Export Plug-In . SVG Version: 6.00 Build 0)  -->
<svg version="1.1" id="Four" xmlns="http://www.w3.org/2000/svg" xmlns:xlink="http://www.w3.org/1999/xlink" x="0px" y="0px"
	 width="2048px" height="2048px" viewBox="0 0 2048 2048" enable-background="new 0 0 2048 2048" xml:space="preserve">
<title>Tiffany Rail Numerals Uni</title>
<path fill="#231F20" d="M1410.2,743.6c0-24.3-19.7-44.1-44.1-44.1c-24.3,0-44.1,19.7-44.1,44.1V1127c33.2,3.1,64.3,17.5,88.2,40.8
	V743.6z"/>
<path fill="#231F20" d="M1248.8,699.5c-24.3,0-44.1,19.7-44.1,44.1v425.9c23.6-23.8,54.8-38.8,88.2-42.3V743.6
	C1292.9,719.3,1273.2,699.5,1248.8,699.5C1248.9,699.5,1248.9,699.5,1248.8,699.5z"/>
<path fill="#231F20" d="M1322,1753.3c0,24.3,19.7,44.1,44.1,44.1c24.3,0,44.1-19.7,44.1-44.1v-376.5c-23.8,23.3-55,37.7-88.2,40.8
	V1753.3z"/>
<path fill="#231F20" d="M612.4,1110.9c64.1,0,116-51.9,116-116s-51.9-116-116-116s-116,51.9-116,116l0,0
	C496.4,1059,548.3,1110.9,612.4,1110.9z"/>
<path fill="#231F20" d="M1424.3,1272.3c0-64.1-51.9-116-116-116s-116,51.9-116,116s51.9,116,116,116l0,0
	C1372.3,1388.3,1424.3,1336.3,1424.3,1272.3z"/>
<path fill="#231F20" d="M631.9,1139.5L631.9,1139.5l-0.1,26.9c0,26.8,20,100.1,107.3,100.1h423.4c1.2-32.4,13.3-63.4,34.2-88.2l0,0
	l-460-0.2c-12.2,0-17-8-17-20.8v-63.5C696.7,1118.8,665.6,1135,631.9,1139.5z"/>
<path fill="#231F20" d="M640.8,851.8c31,6.1,59.2,22.2,80.2,45.7c0,0,4.7-68.9,54.1-118.3l495.7-495.8c17.2-17.2,17.2-45.1,0-62.3
	c-15.6-15.6-40.4-17.3-57.9-3.9l0,0l-0.2,0.2c-3,2.2-5.6,4.9-7.9,7.9c-59.5,59.4-430.2,429.6-491.5,490.9
	C651.5,778.1,640.8,851.8,640.8,851.8z"/>
<path fill="#231F20" d="M611.4,849c0,0,23.4-94.8,73.5-144.9l503.3-503.3l-0.3-0.3c17.2-17.2,17.2-45.1,0-62.3s-45.1-17.2-62.3,0
	l0,0l0,0L630.5,633.3c-77.8,77.8-114.7,205-114.7,251l2.6-1C544.4,861.4,577.3,849.2,611.4,849z"/>
<path fill="#231F20" d="M1214.1,1383.7c-26.6-22.5-44.3-53.8-49.9-88.2H739.8c-139.1,0-137.3-146.2-137.3-146.2s-1.1-3.4-3.1-9.1
	c-31.7-2.8-61.7-15.9-85.2-37.4v66.5c0,132.6,126.4,214.4,224,214.4h466.6v369.6c0,24.3,19.7,44.1,44.1,44.1
	c24.3,0,44.1-19.7,44.1-44.1l0,0v-335.9C1263.8,1414.3,1236.4,1402.6,1214.1,1383.7L1214.1,1383.7L1214.1,1383.7z"/>
</svg>
